# xmcd
#
# Track frame offsets: 
#        183
#        14040
#        27823
#        41428
#        55533
#        64560
#        75998
#        87378
#        99438
#        110493
#        123910
#        140313
#        151348
#        167255
#        182403
#        198888
#        208783
#        231160
#        248248
#        274380
#        291778
#        308080
#
# Disc length: 4376 seconds
#
# Revision: 3
# Processed by: cddbd v1.5.2PL0 Copyright (c) Steve Scherf et al.
# Submitted via: ExactAudioCopy v0.99pb3
#
DISCID=1c111616
DTITLE=Ella Fitzgerald - Basin Street Blues
DYEAR=1900
DGENRE=Jazz
TTITLE0=Basin Street Blues
TTITLE1=Starlit Hour
TTITLE2=We Can't Go On This Way
TTITLE3=Stairway To The Stars
TTITLE4=Lover Come Back To Me
TTITLE5=Is There Somebody Else
TTITLE6=A Tisket, A Tasket
TTITLE7=Sing Song Swing
TTITLE8=That Old Black Magic
TTITLE9=Sugar Blues
TTITLE10=It's A Blue World
TTITLE11=Flying Home
TTITLE12=Who Ya Hunchin
TTITLE13=Chewin Gum
TTITLE14=Goin And Gettin It
TTITLE15=I Wanna Be A Rug Cutter
TTITLE16=Don't Be That Way
TTITLE17=Can't We Be Friends
TTITLE18=Cheek To Cheek
TTITLE19=A Fine Romance
TTITLE20=Moonlight In Vermont
TTITLE21=A Foggy Day In London Town
EXTD=
EXTT0=
EXTT1=
EXTT2=
EXTT3=
EXTT4=
EXTT5=
EXTT6=
EXTT7=
EXTT8=
EXTT9=
EXTT10=
EXTT11=
EXTT12=
EXTT13=
EXTT14=
EXTT15=
EXTT16=
EXTT17=
EXTT18=
EXTT19=
EXTT20=
EXTT21=
PLAYORDER=
